<?xml version="1.0" standalone="no"?>
<!DOCTYPE svg PUBLIC "-//W3C//DTD SVG 20010904//EN"
 "http://www.w3.org/TR/2001/REC-SVG-20010904/DTD/svg10.dtd">
<svg version="1.0" xmlns="http://www.w3.org/2000/svg"
 width="340.000000pt" height="270.000000pt" viewBox="0 0 340.000000 270.000000"
 preserveAspectRatio="xMidYMid meet">

<g transform="translate(0.000000,270.000000) scale(0.100000,-0.100000)"
fill="#000000" stroke="none">
<path d="M2617 2659 c-97 -33 -238 -132 -377 -264 -47 -44 -104 -94 -125 -110
-22 -16 -50 -38 -62 -49 -23 -19 -23 -19 -3 -33 36 -25 84 1 204 111 94 86
190 169 269 232 9 8 22 14 27 14 6 0 10 4 10 8 0 10 58 34 97 39 30 4 34 1 56
-44 96 -190 68 -458 -69 -664 -27 -40 -53 -79 -59 -87 -5 -9 -25 -29 -43 -45
-18 -16 -30 -32 -27 -35 12 -13 153 147 187 213 123 237 127 573 10 696 l-37
38 -58 -20z"/>
<path d="M1306 2533 c-9 -10 -7 -25 3 -19 8 6 22 -35 40 -122 10 -48 10 -48
-48 -61 l-43 -9 4 43 c4 50 -8 47 -15 -3 -7 -41 -20 -58 -52 -66 -14 -4 -25
-11 -25 -16 0 -5 20 -1 43 9 24 11 86 26 137 35 51 9 96 19 99 22 3 3 -5 4
-18 2 -22 -3 -27 4 -46 57 -34 97 -63 144 -79 128z"/>
<path d="M2465 2393 c-36 -6 -175 -62 -175 -71 0 -4 -16 -25 -35 -47 -20 -22
-42 -51 -49 -66 l-13 -26 51 14 c28 8 98 17 156 21 l105 7 -28 19 c-30 21 -45
24 -116 25 l-45 1 30 31 c16 17 61 46 99 64 39 19 66 34 60 33 -5 -1 -23 -3
-40 -5z"/>
<path d="M2064 2346 c-16 -17 -50 -38 -75 -45 -24 -7 -55 -17 -69 -21 l-25 -8
26 -10 c33 -13 103 0 131 24 19 17 53 83 46 89 -2 1 -17 -12 -34 -29z"/>
<path d="M1873 2334 c-30 -15 -38 -24 -28 -28 19 -7 62 12 70 32 8 21 6 20
-42 -4z"/>
<path d="M1468 2343 c6 -2 18 -2 25 0 6 3 1 5 -13 5 -14 0 -19 -2 -12 -5z"/>
<path d="M1540 2309 c-53 -24 -77 -44 -96 -81 -22 -42 7 -43 68 -2 71 48 111
64 183 71 57 6 59 7 32 18 -49 20 -137 17 -187 -6z"/>
<path d="M1376 2268 c-20 -23 -27 -70 -11 -78 6 -3 13 14 16 38 3 24 12 48 20
53 8 5 9 9 4 9 -6 0 -19 -10 -29 -22z"/>
<path d="M1137 2269 c-9 -6 -17 -16 -17 -23 0 -15 -51 -63 -107 -100 -55 -37
-55 -45 -1 -12 75 45 195 174 125 135z"/>
<path d="M1689 2260 c-50 -9 -109 -35 -109 -50 0 -5 9 -11 19 -15 21 -6 166
57 155 68 -4 4 -10 6 -13 6 -3 -1 -27 -5 -52 -9z"/>
<path d="M1277 2168 c-15 -26 -48 -61 -73 -79 -50 -34 -53 -56 -8 -50 74 9
118 64 112 139 l-3 37 -28 -47z"/>
<path d="M1764 2191 c-71 -18 -70 -20 17 -62 79 -38 209 -120 248 -157 10 -9
42 -39 70 -66 28 -27 51 -45 51 -39 0 20 -84 134 -132 179 -27 25 -47 48 -44
51 10 10 139 -26 198 -55 l56 -28 -24 29 c-43 51 -111 101 -171 126 -62 26
-208 38 -269 22z"/>
<path d="M2268 2163 c-16 -2 -28 -7 -28 -11 1 -4 23 -23 50 -42 27 -19 47 -37
44 -39 -2 -2 3 -12 11 -21 9 -10 18 -27 20 -40 6 -33 15 -37 16 -9 2 44 -3 63
-22 88 -15 19 -17 26 -7 33 15 9 67 1 86 -14 8 -7 12 -7 12 0 0 12 -30 38 -30
26 0 -5 -4 -4 -8 1 -20 28 -74 39 -144 28z"/>
<path d="M1478 2126 c-15 -8 -29 -12 -31 -10 -8 8 -78 -77 -72 -86 4 -6 1 -10
-5 -10 -6 0 -9 -4 -6 -9 8 -13 -14 -19 -92 -27 -55 -6 -62 -9 -39 -15 49 -13
160 -22 154 -12 -11 18 48 107 86 129 32 17 46 19 94 13 45 -6 63 -14 93 -44
28 -27 40 -33 46 -24 8 13 -73 92 -87 83 -4 -2 -9 1 -11 7 -6 18 -99 22 -130
5z"/>
<path d="M1445 2044 c-26 -29 -28 -67 -3 -72 23 -4 68 39 70 68 4 37 -34 39
-67 4z"/>
<path d="M1710 2016 c0 -8 -6 -17 -12 -20 -7 -3 -2 -3 12 0 31 8 34 10 25 23
-9 16 -25 13 -25 -3z"/>
<path d="M834 1987 c46 -30 66 -50 66 -67 0 -24 -31 -35 -46 -16 -14 20 -34
21 -34 2 0 -18 26 -39 39 -31 6 3 36 10 66 15 40 6 71 21 113 51 31 22 48 39
37 36 -11 -3 -47 -9 -80 -13 -33 -3 -66 -11 -73 -17 -9 -7 -21 -2 -45 21 -18
18 -39 32 -47 31 -11 0 -10 -3 4 -12z"/>
<path d="M722 1974 c-12 -8 -22 -21 -22 -27 0 -7 5 -4 11 6 5 9 21 17 35 17
14 0 22 4 19 10 -8 14 -17 13 -43 -6z"/>
<path d="M1850 1953 c40 -29 115 -101 110 -106 -3 -3 -36 0 -75 5 -80 11 -268
5 -305 -10 l-25 -11 25 0 c39 -2 118 -28 150 -51 15 -11 32 -20 38 -20 16 0
109 -105 132 -150 13 -25 28 -76 35 -115 l12 -70 8 59 c15 117 -5 196 -65 252
-16 16 -30 32 -30 36 0 13 92 9 150 -6 61 -16 166 -62 175 -77 4 -5 14 -9 23
-9 10 0 13 3 7 8 -6 4 -23 26 -39 50 -70 103 -222 213 -316 227 l-35 6 25 -18z"/>
<path d="M2200 1923 c0 -1 16 -28 36 -58 60 -95 81 -192 53 -248 -7 -14 2 -9
27 16 38 36 39 39 38 106 l0 69 39 6 c24 4 50 18 68 36 37 37 38 58 2 32 -41
-29 -128 -22 -204 15 -32 16 -59 28 -59 26z"/>
<path d="M1495 1910 c-77 -12 -131 -28 -156 -49 -20 -16 -21 -21 -10 -48 19
-47 90 -113 154 -144 73 -34 136 -43 245 -34 88 7 93 17 14 30 -54 9 -150 46
-210 81 -50 30 -102 73 -102 85 0 12 75 49 140 70 l55 18 -40 -1 c-22 0 -62
-4 -90 -8z"/>
<path d="M1026 1884 c-22 -22 -13 -31 37 -39 61 -10 170 -97 232 -185 l17 -25
-6 30 c-18 80 -29 107 -59 147 -49 64 -90 88 -153 88 -35 0 -58 -5 -68 -16z"/>
<path d="M710 1876 c0 -9 5 -16 10 -16 6 0 10 4 10 9 0 6 -4 13 -10 16 -5 3
-10 -1 -10 -9z"/>
<path d="M760 1790 c-8 -5 -11 -12 -8 -16 4 -3 14 1 23 10 18 17 9 21 -15 6z"/>
<path d="M631 1753 c-20 -51 -29 -122 -20 -170 5 -25 10 -48 12 -49 1 -1 3 39
3 89 1 51 7 105 13 121 6 16 10 31 8 33 -3 2 -9 -9 -16 -24z"/>
<path d="M2575 1702 c-78 -73 -95 -85 -168 -118 -47 -22 -63 -34 -52 -38 29
-11 90 -6 139 10 26 9 50 14 53 11 3 -3 -5 -36 -18 -74 -24 -73 -82 -177 -148
-267 -49 -65 -43 -73 13 -16 21 22 42 40 47 40 4 0 32 30 62 68 96 120 147
254 133 351 -4 25 -7 54 -7 64 0 9 -1 17 -2 17 -1 0 -25 -22 -52 -48z"/>
<path d="M1987 1705 c6 -11 11 -23 11 -28 1 -20 15 -73 22 -82 5 -5 8 -12 8
-15 -1 -3 5 -43 12 -90 13 -87 10 -290 -5 -323 -7 -17 -6 -18 13 -6 54 34 96
174 85 283 l-6 55 59 -24 c69 -29 165 -33 219 -11 43 18 44 24 5 18 -79 -11
-276 90 -389 200 -24 24 -39 34 -34 23z"/>
<path d="M758 1694 c-5 -4 -8 -18 -8 -31 0 -28 -14 -57 -46 -96 -13 -16 -24
-33 -24 -39 0 -6 9 1 20 15 40 51 71 45 185 -32 39 -27 93 -60 120 -73 60 -30
214 -83 221 -75 5 5 -54 28 -70 26 -5 0 -12 3 -15 8 -3 4 -31 19 -61 33 -189
86 -289 163 -307 237 -4 19 -11 31 -15 27z"/>
<path d="M1593 1491 c43 -16 103 -46 133 -66 52 -36 122 -120 110 -132 -20
-21 -310 -75 -456 -86 -25 -1 -13 -6 43 -15 103 -16 306 -15 387 2 68 15 160
52 160 64 0 17 -93 129 -132 160 -78 61 -191 103 -279 101 l-44 0 78 -28z"/>
<path d="M2624 1371 c-33 -47 -52 -71 -95 -118 -16 -18 -25 -33 -20 -33 4 0
14 7 21 15 7 9 15 13 18 11 2 -3 14 1 26 9 35 25 39 18 32 -57 -8 -91 -30
-177 -62 -242 l-25 -51 29 33 c79 89 122 215 122 351 0 122 -8 136 -46 82z"/>
<path d="M2246 1345 c-30 -128 -119 -237 -251 -308 -42 -22 -30 -21 51 7 148
51 236 118 249 190 5 26 1 48 -18 88 l-24 53 -7 -30z"/>
<path d="M705 1320 c7 -26 63 -113 77 -118 4 -2 8 -9 8 -15 0 -7 12 -23 25
-36 37 -34 30 -15 -11 36 -20 24 -52 69 -71 101 -19 31 -32 46 -28 32z"/>
<path d="M1961 1146 c-21 -22 -132 -88 -156 -92 -5 -1 -37 -9 -70 -17 -33 -9
-86 -19 -117 -22 l-57 -7 37 -34 c85 -77 213 -121 308 -103 53 10 146 51 102
46 -65 -9 -248 38 -248 63 0 4 28 19 63 34 74 31 117 69 155 134 16 28 11 28
-17 -2z"/>
<path d="M2480 1133 c-14 -10 -34 -27 -45 -38 -11 -12 -41 -36 -67 -55 -27
-18 -48 -37 -48 -42 0 -5 -4 -7 -9 -3 -5 3 -13 0 -16 -6 -15 -24 -226 -117
-325 -143 -174 -46 -174 -46 -50 -42 117 4 239 29 327 67 32 14 43 15 43 5 0
-32 -130 -197 -240 -304 l-25 -24 50 25 c145 74 307 220 380 345 45 77 75 186
58 216 -8 14 -11 14 -33 -1z"/>
<path d="M850 1126 c0 -2 8 -10 18 -17 15 -13 16 -12 3 4 -13 16 -21 21 -21
13z"/>
<path d="M941 1043 c8 -52 -76 -120 -181 -148 l-45 -12 46 -7 c82 -14 141 3
179 51 17 22 23 25 30 13 6 -8 10 -29 10 -46 0 -41 -39 -76 -118 -104 -35 -13
-59 -27 -55 -31 9 -9 72 -26 146 -39 55 -10 141 1 188 25 38 20 90 75 83 87
-3 4 0 8 5 8 6 0 11 5 11 12 0 7 -6 6 -17 -3 -36 -30 -101 -59 -159 -71 -53
-12 -68 -13 -97 -9 -5 0 10 19 32 40 36 34 41 45 41 83 0 43 -22 91 -63 136
-20 22 -38 29 -36 15z"/>
<path d="M2639 880 c-52 -44 -173 -116 -215 -126 -25 -6 -26 -8 -9 -15 11 -4
32 -8 48 -8 27 -1 27 -1 11 -26 -18 -28 -123 -114 -169 -138 -16 -9 -26 -16
-22 -17 14 0 135 58 172 83 63 43 165 146 165 167 0 5 3 10 8 10 7 0 17 18 52
88 6 12 9 22 8 22 -2 -1 -24 -18 -49 -40z"/>
<path d="M1280 788 c-14 -18 -24 -37 -22 -41 1 -5 -2 -6 -7 -3 -5 4 -18 -4
-28 -17 -46 -57 -150 -125 -238 -154 -39 -12 -37 -13 37 -8 84 6 165 31 222
70 l36 24 21 -42 c12 -23 33 -55 47 -72 26 -31 102 -91 102 -81 0 4 10 0 23
-8 12 -8 47 -18 77 -21 l55 -7 -50 30 c-91 54 -166 146 -209 257 -15 39 -30
78 -34 88 -6 16 -10 14 -32 -15z"/>
<path d="M1435 775 c25 -61 83 -123 142 -151 73 -36 184 -44 269 -19 64 18
177 75 210 106 11 10 25 19 32 19 6 0 13 4 16 9 3 5 -27 0 -67 -10 -112 -30
-246 -35 -347 -14 -47 10 -91 18 -97 18 -7 0 -13 4 -13 9 0 4 -5 8 -11 8 -6 0
-38 14 -71 30 -32 17 -63 30 -68 30 -6 0 -4 -16 5 -35z"/>
<path d="M950 650 c-36 -10 -87 -22 -115 -26 -39 -5 -45 -9 -30 -15 56 -22
162 -4 211 37 35 28 22 29 -66 4z"/>
<path d="M1213 535 c-42 -51 -147 -131 -205 -157 -21 -9 -38 -19 -38 -21 0
-11 133 18 182 40 54 24 113 75 101 87 -4 3 -2 6 4 6 14 0 24 40 16 68 -8 31
-17 28 -60 -23z"/>
<path d="M1657 468 c32 -59 111 -142 142 -151 26 -6 27 1 2 27 -11 12 -23 34
-26 49 -7 27 -7 28 26 20 19 -4 86 -7 149 -6 93 1 129 7 190 27 53 18 63 24
35 20 -51 -7 -235 -7 -283 1 -61 10 -164 34 -215 50 l-48 14 28 -51z"/>
<path d="M1308 454 c-11 -11 12 -68 39 -97 16 -16 45 -40 65 -53 42 -27 147
-64 180 -64 19 0 17 4 -17 26 -22 15 -52 38 -67 52 -16 14 -28 22 -28 16 -1
-5 -11 3 -23 17 -33 40 -116 109 -131 109 -7 0 -15 -3 -18 -6z"/>
</g>
</svg>
